<svg width="52" height="30" viewBox="0 0 52 30" fill="none" xmlns="http://www.w3.org/2000/svg">
<path d="M51.8519 15C51.8519 23.2843 45.1361 30 36.8519 30C28.5676 30 21.8519 23.2843 21.8519 15C21.8519 6.71573 28.5676 0 36.8519 0C45.1361 0 51.8519 6.71573 51.8519 15Z" fill="#F57969"/>
<path d="M30 15C30 23.2843 23.2843 30 15 30C6.71573 30 0 23.2843 0 15C0 6.71573 6.71573 0 15 0C23.2843 0 30 6.71573 30 15Z" fill="#0082FF"/>
<path d="M18.3637 12.1601C18.0738 11.6403 17.6543 11.2468 17.1052 10.9795C16.5712 10.6974 15.9382 10.5563 15.2059 10.5563C13.9398 10.5563 12.9254 10.9647 12.1626 11.7814C11.3999 12.5833 11.0185 13.6598 11.0185 15.0111C11.0185 16.4515 11.4152 17.5801 12.2084 18.3968C13.0169 19.1987 14.1229 19.5996 15.5263 19.5996C16.4873 19.5996 17.2958 19.362 17.9518 18.8868C18.623 18.4116 19.1112 17.7286 19.4163 16.8376H14.4508V14.0311H22.963V17.5726C22.6731 18.523 22.1774 19.4065 21.4756 20.2233C20.7892 21.04 19.912 21.7008 18.8442 22.2056C17.7764 22.7105 16.5712 22.963 15.2288 22.963C13.6423 22.963 12.2237 22.6289 10.9728 21.9606C9.73713 21.2776 8.76846 20.3346 8.06674 19.1318C7.38028 17.929 7.03705 16.5555 7.03705 15.0111C7.03705 13.4668 7.38028 12.0932 8.06674 10.8904C8.76846 9.67279 9.73713 8.72986 10.9728 8.06164C12.2084 7.37857 13.6195 7.03703 15.2059 7.03703C17.128 7.03703 18.745 7.48994 20.057 8.39575C21.3841 9.30156 22.2613 10.5563 22.6884 12.1601H18.3637Z" fill="white"/>
<path d="M37.979 22.963C36.8311 22.963 35.8025 22.7784 34.8931 22.4092C33.9837 22.04 33.2532 21.4937 32.7016 20.7701C32.1649 20.0465 31.8817 19.1753 31.8518 18.1564H35.9217C35.9814 18.7323 36.1826 19.1753 36.5255 19.4854C36.8684 19.7807 37.3156 19.9284 37.8672 19.9284C38.4337 19.9284 38.881 19.8029 39.2089 19.5518C39.5369 19.286 39.7009 18.9243 39.7009 18.4665C39.7009 18.0826 39.5667 17.7651 39.2984 17.514C39.0449 17.263 38.7244 17.0563 38.3368 16.8938C37.9641 16.7314 37.4274 16.5468 36.7268 16.3401C35.713 16.03 34.8856 15.7199 34.2446 15.4098C33.6035 15.0997 33.0519 14.6419 32.5898 14.0365C32.1276 13.431 31.8966 12.641 31.8966 11.6664C31.8966 10.2193 32.4258 9.08961 33.4843 8.27744C34.5427 7.4505 35.9217 7.03703 37.6212 7.03703C39.3506 7.03703 40.7445 7.4505 41.8029 8.27744C42.8614 9.08961 43.4279 10.2266 43.5024 11.6886H39.3655C39.3356 11.1865 39.1493 10.7952 38.8064 10.5146C38.4635 10.2193 38.0237 10.0716 37.4871 10.0716C37.0249 10.0716 36.6522 10.1971 36.369 10.4481C36.0857 10.6844 35.9441 11.0314 35.9441 11.4892C35.9441 11.9913 36.1826 12.3826 36.6597 12.6632C37.1367 12.9437 37.8821 13.2464 38.8959 13.5713C39.9096 13.9109 40.7295 14.2358 41.3557 14.5459C41.9967 14.856 42.5483 15.3064 43.0105 15.8971C43.4726 16.4877 43.7037 17.2482 43.7037 18.1785C43.7037 19.0645 43.4726 19.8693 43.0105 20.5929C42.5632 21.3165 41.9073 21.8924 41.0426 22.3206C40.1779 22.7488 39.1568 22.963 37.979 22.963Z" fill="white"/>
</svg>
