<svg width="171" height="30" viewBox="0 0 171 30" fill="none" xmlns="http://www.w3.org/2000/svg">
<path d="M51.8519 15C51.8519 23.2843 45.1361 30 36.8519 30C28.5676 30 21.8519 23.2843 21.8519 15C21.8519 6.71573 28.5676 0 36.8519 0C45.1361 0 51.8519 6.71573 51.8519 15Z" fill="#F57969"/>
<path d="M30 15C30 23.2843 23.2843 30 15 30C6.71573 30 0 23.2843 0 15C0 6.71573 6.71573 0 15 0C23.2843 0 30 6.71573 30 15Z" fill="#0082FF"/>
<path d="M18.3637 12.1601C18.0738 11.6403 17.6543 11.2468 17.1052 10.9795C16.5712 10.6974 15.9382 10.5563 15.2059 10.5563C13.9398 10.5563 12.9254 10.9647 12.1626 11.7814C11.3999 12.5833 11.0185 13.6598 11.0185 15.0111C11.0185 16.4515 11.4152 17.5801 12.2084 18.3968C13.0169 19.1987 14.1229 19.5996 15.5263 19.5996C16.4873 19.5996 17.2958 19.362 17.9518 18.8868C18.623 18.4116 19.1112 17.7286 19.4163 16.8376H14.4508V14.0311H22.963V17.5726C22.6731 18.523 22.1774 19.4065 21.4756 20.2233C20.7892 21.04 19.912 21.7008 18.8442 22.2056C17.7764 22.7105 16.5712 22.963 15.2288 22.963C13.6423 22.963 12.2237 22.6289 10.9728 21.9606C9.73713 21.2776 8.76846 20.3346 8.06674 19.1318C7.38028 17.929 7.03705 16.5555 7.03705 15.0111C7.03705 13.4668 7.38028 12.0932 8.06674 10.8904C8.76846 9.67279 9.73713 8.72986 10.9728 8.06164C12.2084 7.37857 13.6195 7.03703 15.2059 7.03703C17.128 7.03703 18.745 7.48994 20.057 8.39575C21.3841 9.30156 22.2613 10.5563 22.6884 12.1601H18.3637Z" fill="white"/>
<path d="M170.323 16.1789C170.323 16.5715 170.296 16.9248 170.244 17.2389H162.294C162.359 18.0241 162.634 18.6392 163.118 19.0841C163.603 19.529 164.198 19.7515 164.905 19.7515C165.926 19.7515 166.652 19.3131 167.084 18.4363H170.048C169.734 19.4832 169.132 20.3469 168.242 21.0274C167.352 21.6948 166.259 22.0285 164.964 22.0285C163.917 22.0285 162.975 21.7995 162.137 21.3415C161.313 20.8704 160.665 20.2095 160.194 19.3589C159.736 18.5083 159.507 17.5268 159.507 16.4145C159.507 15.289 159.736 14.301 160.194 13.4504C160.652 12.5998 161.293 11.9454 162.117 11.4874C162.942 11.0294 163.891 10.8004 164.964 10.8004C165.997 10.8004 166.92 11.0229 167.731 11.4678C168.556 11.9127 169.191 12.5474 169.636 13.3719C170.094 14.1832 170.323 15.1189 170.323 16.1789ZM167.476 15.3937C167.463 14.6871 167.208 14.1243 166.711 13.7056C166.213 13.2737 165.605 13.0578 164.885 13.0578C164.205 13.0578 163.629 13.2672 163.158 13.6859C162.7 14.0916 162.418 14.6609 162.314 15.3937H167.476Z" fill="white"/>
<path d="M155.025 12.6652C155.379 12.0894 155.837 11.6379 156.399 11.3107C156.975 10.9836 157.629 10.82 158.362 10.82V13.7056H157.636C156.772 13.7056 156.118 13.9084 155.673 14.3141C155.241 14.7198 155.025 15.4264 155.025 16.4341V21.8519H152.277V10.977H155.025V12.6652Z" fill="white"/>
<path d="M144.588 22.0285C143.541 22.0285 142.599 21.7995 141.762 21.3415C140.924 20.8704 140.263 20.2095 139.779 19.3589C139.308 18.5083 139.072 17.5268 139.072 16.4145C139.072 15.3021 139.314 14.3206 139.799 13.47C140.296 12.6194 140.97 11.9651 141.821 11.5071C142.671 11.0359 143.62 10.8004 144.667 10.8004C145.714 10.8004 146.662 11.0359 147.513 11.5071C148.364 11.9651 149.031 12.6194 149.515 13.47C150.013 14.3206 150.261 15.3021 150.261 16.4145C150.261 17.5268 150.006 18.5083 149.496 19.3589C148.998 20.2095 148.318 20.8704 147.454 21.3415C146.604 21.7995 145.648 22.0285 144.588 22.0285ZM144.588 19.6337C145.086 19.6337 145.55 19.5159 145.982 19.2804C146.427 19.0317 146.78 18.6653 147.042 18.1811C147.304 17.6969 147.435 17.108 147.435 16.4145C147.435 15.3806 147.16 14.5889 146.61 14.0393C146.074 13.4766 145.413 13.1952 144.628 13.1952C143.842 13.1952 143.181 13.4766 142.645 14.0393C142.121 14.5889 141.86 15.3806 141.86 16.4145C141.86 17.4483 142.115 18.2466 142.625 18.8093C143.149 19.3589 143.803 19.6337 144.588 19.6337Z" fill="white"/>
<path d="M135.349 13.2344V18.4952C135.349 18.8616 135.434 19.1299 135.604 19.3C135.787 19.457 136.088 19.5356 136.507 19.5356H137.783V21.8519H136.055C133.739 21.8519 132.581 20.7264 132.581 18.4756V13.2344H131.285V10.977H132.581V8.28778H135.349V10.977H137.783V13.2344H135.349Z" fill="white"/>
<path d="M124.918 21.9893C123.963 21.9893 123.099 21.8257 122.327 21.4985C121.568 21.1714 120.966 20.7002 120.521 20.0852C120.076 19.4701 119.847 18.7438 119.834 17.9063H122.778C122.818 18.469 123.014 18.9139 123.367 19.2411C123.734 19.5683 124.231 19.7318 124.859 19.7318C125.5 19.7318 126.004 19.5814 126.371 19.2804C126.737 18.9663 126.92 18.5606 126.92 18.0633C126.92 17.6577 126.796 17.3239 126.547 17.0622C126.299 16.8005 125.985 16.5977 125.605 16.4537C125.239 16.2967 124.728 16.1265 124.074 15.9433C123.184 15.6816 122.458 15.4264 121.895 15.1778C121.345 14.916 120.868 14.53 120.462 14.0196C120.07 13.4962 119.873 12.8026 119.873 11.9389C119.873 11.1275 120.076 10.4209 120.482 9.81889C120.887 9.21691 121.457 8.75889 122.19 8.44481C122.922 8.11765 123.76 7.95407 124.702 7.95407C126.115 7.95407 127.26 8.30086 128.137 8.99444C129.027 9.67493 129.518 10.6302 129.61 11.8604H126.587C126.56 11.3893 126.358 11.0032 125.978 10.7022C125.612 10.3881 125.121 10.2311 124.506 10.2311C123.969 10.2311 123.537 10.3685 123.21 10.6433C122.896 10.9181 122.739 11.3173 122.739 11.8407C122.739 12.2072 122.857 12.5147 123.092 12.7633C123.341 12.9989 123.642 13.1952 123.995 13.3522C124.362 13.4962 124.872 13.6663 125.527 13.8626C126.416 14.1243 127.143 14.386 127.705 14.6478C128.268 14.9095 128.752 15.3021 129.158 15.8256C129.564 16.349 129.767 17.036 129.767 17.8867C129.767 18.6195 129.577 19.3 129.197 19.9281C128.818 20.5563 128.262 21.0601 127.529 21.4396C126.796 21.806 125.926 21.9893 124.918 21.9893Z" fill="white"/>
<path d="M118.181 16.1789C118.181 16.5715 118.155 16.9248 118.103 17.2389H110.153C110.218 18.0241 110.493 18.6392 110.977 19.0841C111.461 19.529 112.057 19.7515 112.764 19.7515C113.784 19.7515 114.511 19.3131 114.942 18.4363H117.907C117.592 19.4832 116.99 20.3469 116.101 21.0274C115.211 21.6948 114.118 22.0285 112.822 22.0285C111.776 22.0285 110.833 21.7995 109.996 21.3415C109.171 20.8704 108.524 20.2095 108.052 19.3589C107.594 18.5083 107.365 17.5268 107.365 16.4145C107.365 15.289 107.594 14.301 108.052 13.4504C108.51 12.5998 109.152 11.9454 109.976 11.4874C110.801 11.0294 111.749 10.8004 112.822 10.8004C113.856 10.8004 114.779 11.0229 115.59 11.4678C116.415 11.9127 117.049 12.5474 117.494 13.3719C117.952 14.1832 118.181 15.1189 118.181 16.1789ZM115.335 15.3937C115.322 14.6871 115.067 14.1243 114.57 13.7056C114.072 13.2737 113.464 13.0578 112.744 13.0578C112.063 13.0578 111.488 13.2672 111.017 13.6859C110.559 14.0916 110.277 14.6609 110.172 15.3937H115.335Z" fill="white"/>
<path d="M101.008 10.82C102.343 10.82 103.416 11.2322 104.228 12.0567C105.052 12.868 105.464 14.0066 105.464 15.4722V21.8519H102.716V15.8452C102.716 14.9946 102.5 14.3468 102.068 13.9019C101.636 13.4438 101.048 13.2148 100.302 13.2148C99.5558 13.2148 98.9603 13.4438 98.5154 13.9019C98.0835 14.3468 97.8676 14.9946 97.8676 15.8452V21.8519H95.1195V15.8452C95.1195 14.9946 94.9035 14.3468 94.4717 13.9019C94.0398 13.4438 93.4509 13.2148 92.705 13.2148C91.946 13.2148 91.344 13.4438 90.8991 13.9019C90.4672 14.3468 90.2513 14.9946 90.2513 15.8452V21.8519H87.5032V10.977H90.2513V12.2922C90.6046 11.8342 91.0561 11.4743 91.6058 11.2126C92.1685 10.9509 92.7835 10.82 93.4509 10.82C94.3016 10.82 95.0606 11.0032 95.728 11.3696C96.3954 11.723 96.9123 12.2333 97.2787 12.9007C97.632 12.2726 98.1424 11.7688 98.8098 11.3893C99.4903 11.0098 100.223 10.82 101.008 10.82Z" fill="white"/>
<path d="M73.4928 16.3752C73.4928 15.2759 73.7088 14.301 74.1406 13.4504C74.5855 12.5998 75.181 11.9454 75.9269 11.4874C76.6859 11.0294 77.53 10.8004 78.4591 10.8004C79.2705 10.8004 79.9771 10.964 80.5791 11.2911C81.1942 11.6183 81.6849 12.0305 82.0513 12.5278V10.9771H84.8191V21.8519H82.0513V20.2619C81.698 20.7722 81.2073 21.1975 80.5791 21.5378C79.9641 21.865 79.2509 22.0285 78.4395 22.0285C77.5234 22.0285 76.6859 21.793 75.9269 21.3219C75.181 20.8508 74.5855 20.1899 74.1406 19.3393C73.7088 18.4756 73.4928 17.4875 73.4928 16.3752ZM82.0513 16.4145C82.0513 15.7471 81.9205 15.1778 81.6588 14.7067C81.397 14.2225 81.0437 13.8561 80.5988 13.6074C80.1538 13.3457 79.6762 13.2148 79.1658 13.2148C78.6554 13.2148 78.1843 13.3391 77.7525 13.5878C77.3206 13.8364 76.9673 14.2029 76.6925 14.6871C76.4307 15.1582 76.2999 15.7209 76.2999 16.3752C76.2999 17.0295 76.4307 17.6053 76.6925 18.1026C76.9673 18.5868 77.3206 18.9598 77.7525 19.2215C78.1974 19.4832 78.6685 19.6141 79.1658 19.6141C79.6762 19.6141 80.1538 19.4898 80.5988 19.2411C81.0437 18.9794 81.397 18.613 81.6588 18.1419C81.9205 17.6577 82.0513 17.0819 82.0513 16.4145Z" fill="white"/>
<path d="M68.6722 12.2729C68.3581 11.6971 67.9263 11.2587 67.3766 10.9577C66.827 10.6567 66.1858 10.5062 65.4529 10.5062C64.6416 10.5062 63.9218 10.6894 63.2937 11.0559C62.6655 11.4223 62.1748 11.9457 61.8214 12.6262C61.4681 13.3067 61.2914 14.0919 61.2914 14.9818C61.2914 15.8978 61.4681 16.6961 61.8214 17.3766C62.1879 18.0571 62.6917 18.5805 63.3329 18.947C63.9742 19.3134 64.7201 19.4966 65.5707 19.4966C66.6176 19.4966 67.4748 19.2218 68.1422 18.6721C68.8096 18.1094 69.248 17.3308 69.4574 16.3362H64.7463V14.2359H72.1663V16.6307C71.9831 17.586 71.5905 18.4693 70.9885 19.2807C70.3865 20.092 69.6079 20.7463 68.6526 21.2436C67.7103 21.7278 66.6503 21.9699 65.4726 21.9699C64.1508 21.9699 62.9534 21.6755 61.8803 21.0866C60.8203 20.4846 59.9828 19.6536 59.3677 18.5936C58.7658 17.5336 58.4648 16.3297 58.4648 14.9818C58.4648 13.6339 58.7658 12.4299 59.3677 11.3699C59.9828 10.2968 60.8203 9.46585 61.8803 8.87696C62.9534 8.27499 64.1443 7.974 65.4529 7.974C66.9971 7.974 68.3385 8.3535 69.477 9.11252C70.6155 9.85844 71.4007 10.9119 71.8326 12.2729H68.6722Z" fill="white"/>
<path d="M37.979 22.963C36.8311 22.963 35.8025 22.7784 34.8931 22.4092C33.9837 22.04 33.2532 21.4937 32.7016 20.7701C32.1649 20.0465 31.8817 19.1753 31.8518 18.1564H35.9217C35.9814 18.7323 36.1826 19.1753 36.5255 19.4854C36.8684 19.7807 37.3156 19.9284 37.8672 19.9284C38.4337 19.9284 38.881 19.8029 39.2089 19.5518C39.5369 19.286 39.7009 18.9243 39.7009 18.4665C39.7009 18.0826 39.5667 17.7651 39.2984 17.514C39.0449 17.263 38.7244 17.0563 38.3368 16.8938C37.9641 16.7314 37.4274 16.5468 36.7268 16.3401C35.713 16.03 34.8856 15.7199 34.2446 15.4098C33.6035 15.0997 33.0519 14.6419 32.5898 14.0365C32.1276 13.431 31.8966 12.641 31.8966 11.6664C31.8966 10.2193 32.4258 9.08961 33.4843 8.27744C34.5427 7.4505 35.9217 7.03703 37.6212 7.03703C39.3506 7.03703 40.7445 7.4505 41.8029 8.27744C42.8614 9.08961 43.4279 10.2266 43.5024 11.6886H39.3655C39.3356 11.1865 39.1493 10.7952 38.8064 10.5146C38.4635 10.2193 38.0237 10.0716 37.4871 10.0716C37.0249 10.0716 36.6522 10.1971 36.369 10.4481C36.0857 10.6844 35.9441 11.0314 35.9441 11.4892C35.9441 11.9913 36.1826 12.3826 36.6597 12.6632C37.1367 12.9437 37.8821 13.2464 38.8959 13.5713C39.9096 13.9109 40.7295 14.2358 41.3557 14.5459C41.9967 14.856 42.5483 15.3064 43.0105 15.8971C43.4726 16.4877 43.7037 17.2482 43.7037 18.1785C43.7037 19.0645 43.4726 19.8693 43.0105 20.5929C42.5632 21.3165 41.9073 21.8924 41.0426 22.3206C40.1779 22.7488 39.1568 22.963 37.979 22.963Z" fill="white"/>
</svg>
